<svg width="29" height="22" viewBox="0 0 29 22" fill="none" xmlns="http://www.w3.org/2000/svg">
<g opacity="0.3">
<path d="M13.521 18.3639C13.9701 18.3639 14.3743 18.7304 14.3743 19.2344C14.3743 19.6925 14.015 20.1049 13.521 20.1049C13.072 20.1049 12.6678 19.7383 12.6678 19.2344C12.6678 18.7304 13.072 18.3639 13.521 18.3639ZM26.7236 13.0492C26.2745 13.0492 25.8703 12.6827 25.8703 12.1787C25.8703 11.7206 26.2296 11.3082 26.7236 11.3082C27.1726 11.3082 27.5768 11.6747 27.5768 12.1787C27.5768 12.6369 27.1726 13.0492 26.7236 13.0492ZM26.7236 9.5214C25.2866 9.5214 24.119 10.7126 24.119 12.1787C24.119 12.4536 24.1639 12.7285 24.2537 13.0034L15.6765 17.6766C15.1826 16.9436 14.3743 16.5312 13.521 16.5312C12.5331 16.5312 11.635 17.1268 11.1859 17.9973L3.46196 13.8739C2.65364 13.4157 2.02495 12.0871 2.11476 10.8042C2.15967 10.1628 2.3842 9.65885 2.69855 9.47559C2.92308 9.33814 3.14762 9.38395 3.46196 9.5214L3.50687 9.56722C5.57257 10.6668 12.2636 14.2404 12.5331 14.3779C12.9822 14.5611 13.2067 14.6528 13.9701 14.2862L27.8013 6.95571C28.0259 6.86408 28.2504 6.68082 28.2504 6.36011C28.2504 5.94777 27.8462 5.7645 27.8462 5.7645C27.0379 5.39798 25.8254 4.80237 24.6579 4.25258C22.1431 3.06137 19.2691 1.68689 18.0117 0.999657C16.9339 0.404051 16.0358 0.908025 15.9011 0.999657L15.5867 1.1371C9.8836 4.06932 2.3393 7.87203 1.89023 8.14693C1.12682 8.60509 0.632848 9.56722 0.587941 10.7584C0.498128 12.6369 1.44117 14.607 2.78836 15.2942L10.9614 19.6009C11.141 20.8837 12.2636 21.8917 13.521 21.8917C14.958 21.8917 16.0807 20.7463 16.1256 19.2802L25.1069 14.3321C25.556 14.6986 26.1398 14.8819 26.7236 14.8819C28.1606 14.8819 29.3281 13.6906 29.3281 12.2245C29.3281 10.7126 28.1606 9.5214 26.7236 9.5214Z" fill="#F7F5F9"/>
</g>
</svg>
