<svg width="21" height="20" viewBox="0 0 21 20" fill="none" xmlns="http://www.w3.org/2000/svg">
<path opacity="0.3" d="M10.5 0C4.69875 0 0 4.59124 0 10.2538C0 14.785 3.00825 18.6275 7.17938 19.9823C7.70438 20.0788 7.89687 19.7614 7.89687 19.4893C7.89687 19.2458 7.88813 18.6006 7.88375 17.7458C4.963 18.3641 4.347 16.3702 4.347 16.3702C3.86925 15.1867 3.17887 14.8702 3.17887 14.8702C2.22775 14.2346 3.25238 14.2476 3.25238 14.2476C4.30675 14.3189 4.86063 15.3041 4.86063 15.3041C5.79688 16.8719 7.3185 16.4189 7.91875 16.1571C8.01325 15.4937 8.28363 15.0424 8.58375 14.7859C6.25188 14.5293 3.801 13.6476 3.801 9.71899C3.801 8.59987 4.20788 7.6851 4.88163 6.96772C4.7635 6.7086 4.40912 5.666 4.9735 4.25385C4.9735 4.25385 5.85288 3.97907 7.861 5.30514C8.701 5.07732 9.5935 4.96427 10.486 4.95906C11.3785 4.96427 12.271 5.07732 13.111 5.30514C15.106 3.97907 15.9854 4.25385 15.9854 4.25385C16.5497 5.666 16.1954 6.7086 16.0904 6.96772C16.7598 7.6851 17.1666 8.59987 17.1666 9.71899C17.1666 13.6581 14.7123 14.525 12.376 14.7772C12.7435 15.085 13.0848 15.7137 13.0848 16.6745C13.0848 18.0467 13.0716 19.1493 13.0716 19.4823C13.0716 19.751 13.2554 20.0719 13.7935 19.9693C17.9944 18.6232 21 14.778 21 10.2538C21 4.59124 16.2986 0 10.5 0Z" fill="#F7F5F9"/>
</svg>
