<svg width="105" height="65" viewBox="0 0 105 65" fill="none" xmlns="http://www.w3.org/2000/svg">
<path d="M52.3948 55.2422C40.8508 55.2422 31.2187 47.3064 29.099 36.8315H0.400024V65.0002H104.4V36.8315H75.6907C73.5814 47.3064 63.9388 55.2422 52.3948 55.2422Z" fill="url(#paint0_linear_13566_2344)"/>
<path d="M0.400024 0V28.1687H29.1094C31.2187 17.6838 40.8612 9.74801 52.3948 9.74801C63.9284 9.74801 73.571 17.6838 75.6907 28.1587H104.4V0H0.400024Z" fill="url(#paint1_linear_13566_2344)"/>
<path d="M59.1396 19.1674C59.1396 19.1674 60.2098 18.9284 61.1865 19.1076C60.7917 18.8687 60.1994 18.5799 59.337 18.2911C57.1965 17.5643 53.1546 16.3196 47.9488 17.7734C49.6113 18.3708 48.8009 19.8743 47.8345 20.9397C46.9202 21.9554 44.6966 23.5585 43.3873 24.3053C43.8861 25.0421 44.842 26.0378 46.6916 26.9439C47.4085 24.7533 49.9231 21.2185 59.1396 19.1674Z" fill="#EAEAEE"/>
<path d="M58.5672 35.4873C54.4837 37.4189 52.9875 39.1714 53.5693 42.3776C54.1824 45.753 57.9646 46.5396 58.5776 46.4898C58.9309 46.46 59.3673 46.2708 59.679 46.1115C59.4504 45.7928 59.3881 45.2751 59.8557 44.6279C59.8557 44.6279 60.3128 43.9906 60.7804 43.5027C61.2376 43.0148 63.0767 41.3022 63.9496 40.6649C64.8224 40.0277 65.9446 39.3407 66.4537 39.0519C66.5576 38.9922 66.6615 38.9324 66.755 38.8826C67.0356 38.0861 67.2642 37.2696 67.4304 36.5726C67.3473 36.5726 67.2642 36.5626 67.1707 36.5527C65.9861 36.4133 61.6325 36.1544 58.5672 35.4873Z" fill="#E6E6E9"/>
<path d="M42.3271 35.079C39.823 32.8286 37.5266 30.2796 37.0591 29.6922C36.6019 29.1047 36.2901 30.3792 36.2901 30.3792C35.0121 35.7162 37.828 41.103 39.8645 43.0646C41.9011 45.0261 43.8545 46.201 46.2028 47.376C48.5511 48.5509 48.1459 47.5253 48.2498 46.5894C48.3537 45.6534 48.416 44.12 47.9381 42.2282C47.4393 40.177 44.8313 37.3392 42.3271 35.079Z" fill="#FCFCFC"/>
<path d="M47.8437 20.9299C48.7996 19.8645 49.6101 18.3709 47.958 17.7635C47.5736 17.8731 47.1787 17.9925 46.7735 18.1319C40.9963 20.1433 42.877 23.1503 42.877 23.1503C42.877 23.1503 42.9497 23.6083 43.3965 24.2854C44.7161 23.5486 46.9293 21.9455 47.8437 20.9299Z" fill="#EAEAEE"/>
<path d="M47.9591 17.7635C47.9384 17.7535 47.9176 17.7535 47.8968 17.7436C46.068 17.1262 40.4883 19.7549 37.1113 26.3664C37.1113 26.3664 36.2904 27.4418 37.4646 26.9539C38.6387 26.466 41.9118 25.0919 43.1898 24.4049C43.2522 24.375 43.3249 24.3352 43.3873 24.2953C44.7069 23.5486 46.9201 21.9455 47.8345 20.9298C48.8112 19.8644 49.6217 18.3709 47.9591 17.7635Z" fill="url(#paint2_linear_13566_2344)"/>
<path d="M63.9508 40.6648C63.078 41.302 61.2389 43.0146 60.7817 43.5025C60.3245 43.9904 59.8569 44.6277 59.8569 44.6277C59.379 45.2749 59.4517 45.7927 59.6803 46.1113C59.9089 45.9918 60.0648 45.9022 60.0648 45.9022C60.0648 45.9022 65.6341 41.6405 66.5069 39.5396C66.6004 39.3205 66.6836 39.1015 66.7563 38.8824C66.6628 38.9322 66.5589 38.992 66.455 39.0517C65.9354 39.3405 64.8133 40.0275 63.9508 40.6648Z" fill="#E6E6E9"/>
<path d="M67.5773 38.3648C67.411 38.5241 67.1201 38.6734 66.7564 38.8825C66.6629 38.9323 66.559 38.9921 66.4551 39.0518C65.9459 39.3505 64.8237 40.0276 63.9509 40.6648C63.0781 41.3021 61.2389 43.0147 60.7817 43.5026C60.3245 43.9905 59.8569 44.6278 59.8569 44.6278C59.379 45.275 59.4517 45.7927 59.6803 46.1114C59.7946 46.2707 59.9609 46.3902 60.1167 46.44C60.5739 46.5893 61.187 46.5395 62.7767 45.7031C64.3561 44.8667 65.3848 43.4528 66.1537 42.4671C66.9226 41.4813 67.2759 40.0674 67.3798 39.6791C67.4837 39.2908 67.6396 38.7929 67.6396 38.7929L67.7955 38.1557C67.7851 38.1656 67.7851 38.1656 67.5773 38.3648Z" fill="url(#paint3_linear_13566_2344)"/>
<path d="M62.8691 21.5671L61.9963 19.8047C61.9963 19.8047 61.8508 19.516 61.1858 19.1077C60.2091 18.9285 59.1389 19.1675 59.1389 19.1675C49.9224 21.2186 47.3975 24.7534 46.6909 26.934C47.0442 27.1033 47.4182 27.2725 47.8443 27.4418C52.4473 29.254 62.8691 21.5671 62.8691 21.5671Z" fill="#EAEAEE"/>
<path d="M66.5065 32.729C66.5065 32.729 63.8465 33.1173 59.2539 35.1785C59.0253 35.278 58.7967 35.3876 58.5785 35.4871C61.6541 36.1443 65.9974 36.4131 67.1819 36.5426C67.2754 36.5525 67.3586 36.5625 67.4417 36.5625C67.6807 35.5568 67.795 34.82 67.795 34.82L66.5065 32.729Z" fill="#E6E6E9"/>
<path d="M68.5944 29.7915C68.0853 26.4658 67.7736 25.729 65.9864 23.0306C64.1576 20.2725 62.8172 19.7049 61.747 19.2569C61.5703 19.1872 61.3833 19.1374 61.1859 19.0976C60.2092 18.9183 59.1389 19.1573 59.1389 19.1573C49.9224 21.2085 47.3975 24.7432 46.6909 26.9238C46.4519 27.6607 46.4208 28.2382 46.4104 28.5568C46.3584 29.8313 47.5845 31.3946 49.5276 32.6193C51.4706 33.844 54.7956 34.5311 57.8609 35.3177C58.0895 35.3774 58.3181 35.4272 58.5674 35.487C61.6431 36.1441 65.9864 36.413 67.1709 36.5424C67.2644 36.5524 67.3475 36.5623 67.4307 36.5623C68.4697 36.5723 68.6048 35.8554 68.6048 35.8554C68.6048 35.8554 69.1036 33.1271 68.5944 29.7915Z" fill="url(#paint4_linear_13566_2344)"/>
<defs>
<linearGradient id="paint0_linear_13566_2344" x1="0.400024" y1="50.9135" x2="104.399" y2="50.9135" gradientUnits="userSpaceOnUse">
<stop stop-color="#EDEDED"/>
<stop offset="1" stop-color="#FDFDFD"/>
</linearGradient>
<linearGradient id="paint1_linear_13566_2344" x1="0.400024" y1="14.0824" x2="104.399" y2="14.0824" gradientUnits="userSpaceOnUse">
<stop stop-color="#EDEDED"/>
<stop offset="1" stop-color="#FDFDFD"/>
</linearGradient>
<linearGradient id="paint2_linear_13566_2344" x1="36.839" y1="22.3684" x2="48.9143" y2="22.3684" gradientUnits="userSpaceOnUse">
<stop stop-color="#EDEDED"/>
<stop offset="1" stop-color="#FDFDFD"/>
</linearGradient>
<linearGradient id="paint3_linear_13566_2344" x1="59.5034" y1="42.338" x2="67.7804" y2="42.338" gradientUnits="userSpaceOnUse">
<stop stop-color="#EDEDED"/>
<stop offset="1" stop-color="#FDFDFD"/>
</linearGradient>
<linearGradient id="paint4_linear_13566_2344" x1="64.3774" y1="30.7431" x2="55.7524" y2="25.5467" gradientUnits="userSpaceOnUse">
<stop stop-color="#EDEDED"/>
<stop offset="1" stop-color="#FDFDFD"/>
</linearGradient>
</defs>
</svg>
