<svg width="26" height="15" viewBox="0 0 26 15" fill="none" xmlns="http://www.w3.org/2000/svg">
<g opacity="0.3">
<path d="M7.28079 14.537C3.41109 14.5209 0.296481 11.3125 0.300786 7.34638C0.30509 3.35208 3.45186 0.14289 7.3403 0.166141C11.1862 0.189134 14.2985 3.41847 14.2806 7.36705C14.2649 11.3433 11.1295 14.553 7.28079 14.537Z" fill="#F7F5F9"/>
<path d="M22.0136 7.35694C21.9396 8.97807 21.7097 10.5506 20.9862 12.0059C20.7696 12.4429 20.5006 12.8508 20.1853 13.2201C19.1425 14.4305 17.7493 14.4085 16.7063 13.1961C15.972 12.3417 15.5575 11.3239 15.3063 10.2357C14.7565 7.85245 14.8345 5.49917 15.7076 3.19962C15.9765 2.49175 16.3442 1.83787 16.8942 1.31369C17.9709 0.286239 19.2332 0.359867 20.2114 1.49634C21.0723 2.49821 21.4998 3.70417 21.7307 4.98402C21.868 5.76578 21.9204 6.56666 22.0136 7.35694Z" fill="#F7F5F9"/>
<path d="M25.1204 6.80794C25.0698 9.0119 25.0178 10.6739 24.5719 12.2893C24.4879 12.5941 24.3647 12.8863 24.2055 13.1581C24.0009 13.5048 23.6965 13.5136 23.5302 13.1504C23.3023 12.6546 23.0941 12.1291 23.0007 11.5938C22.4943 8.70576 22.4943 5.8115 23.0356 2.92654C23.1164 2.49561 23.2818 2.07399 23.4572 1.67174C23.5254 1.51674 23.7315 1.32401 23.8725 1.32582C24.0136 1.32763 24.2313 1.52216 24.2838 1.67846C24.4952 2.31012 24.7315 2.94901 24.8196 3.6047C24.9864 4.84373 25.0573 6.0962 25.1204 6.80794Z" fill="#F7F5F9"/>
</g>
</svg>
