<svg width="24" height="19" viewBox="0 0 24 19" fill="none" xmlns="http://www.w3.org/2000/svg">
<g opacity="0.3">
<path d="M23.3811 2.23068C22.5358 2.60899 21.6351 2.85974 20.6961 2.98149C21.6621 2.39302 22.3995 1.46828 22.7461 0.353663C21.8454 0.90155 20.8509 1.28855 19.7911 1.50452C18.9359 0.575427 17.7169 0 16.3872 0C13.8072 0 11.7302 2.13647 11.7302 4.7556C11.7302 5.13246 11.7615 5.49482 11.8382 5.83978C7.96401 5.64701 4.53593 3.75259 2.23302 0.866763C1.83097 1.57844 1.59514 2.39302 1.59514 3.26993C1.59514 4.91649 2.42623 6.37607 3.66506 7.22109C2.91636 7.2066 2.18187 6.98484 1.55962 6.63552C1.55962 6.65002 1.55962 6.66886 1.55962 6.6877C1.55962 8.9981 3.17492 10.9172 5.29314 11.3592C4.91383 11.465 4.50041 11.5158 4.07137 11.5158C3.77303 11.5158 3.47184 11.4984 3.18913 11.4346C3.79292 13.3174 5.50625 14.7016 7.54349 14.7466C5.95802 16.0119 3.94493 16.7743 1.76562 16.7743C1.38346 16.7743 1.01692 16.7569 0.650391 16.7091C2.71463 18.0672 5.16102 18.8427 7.79921 18.8427C16.3744 18.8427 21.0626 11.5955 21.0626 5.31364C21.0626 5.10347 21.0555 4.90055 21.0456 4.69907C21.9704 4.02943 22.7475 3.19311 23.3811 2.23068Z" fill="#F7F5F9"/>
</g>
</svg>
